<mxfile host="app.diagrams.net" modified="2023-11-03T09:50:49.405Z" agent="Mozilla/5.0 (Windows NT 10.0; Win64; x64) AppleWebKit/537.36 (KHTML, like Gecko) Chrome/118.0.0.0 Safari/537.36" etag="M8t8Ffwiuvr6q7IAHBEv" version="22.0.8" type="google">
  <diagram name="Page-1" id="hamNLFHZxLHVFHJd2wlz">
    <mxGraphModel dx="1114" dy="610" grid="1" gridSize="10" guides="1" tooltips="1" connect="1" arrows="1" fold="1" page="1" pageScale="1" pageWidth="850" pageHeight="1100" math="0" shadow="0">
      <root>
        <mxCell id="0" />
        <mxCell id="1" parent="0" />
        <mxCell id="H7jm2XfHQFkNsiDKC1nO-31" style="edgeStyle=orthogonalEdgeStyle;rounded=0;orthogonalLoop=1;jettySize=auto;html=1;entryX=0.833;entryY=1;entryDx=0;entryDy=0;entryPerimeter=0;" edge="1" parent="1" source="H7jm2XfHQFkNsiDKC1nO-2" target="H7jm2XfHQFkNsiDKC1nO-21">
          <mxGeometry relative="1" as="geometry">
            <mxPoint x="830" y="370" as="targetPoint" />
            <Array as="points">
              <mxPoint x="410" y="370" />
              <mxPoint x="820" y="370" />
            </Array>
          </mxGeometry>
        </mxCell>
        <mxCell id="H7jm2XfHQFkNsiDKC1nO-32" value="Report submission" style="edgeLabel;html=1;align=center;verticalAlign=middle;resizable=0;points=[];" vertex="1" connectable="0" parent="H7jm2XfHQFkNsiDKC1nO-31">
          <mxGeometry x="-0.0902" y="-2" relative="1" as="geometry">
            <mxPoint x="8" y="8" as="offset" />
          </mxGeometry>
        </mxCell>
        <mxCell id="H7jm2XfHQFkNsiDKC1nO-2" value="System" style="ellipse;whiteSpace=wrap;html=1;aspect=fixed;" vertex="1" parent="1">
          <mxGeometry x="340" y="200" width="140" height="140" as="geometry" />
        </mxCell>
        <mxCell id="H7jm2XfHQFkNsiDKC1nO-7" style="edgeStyle=orthogonalEdgeStyle;rounded=0;orthogonalLoop=1;jettySize=auto;html=1;" edge="1" parent="1" source="H7jm2XfHQFkNsiDKC1nO-6" target="H7jm2XfHQFkNsiDKC1nO-2">
          <mxGeometry relative="1" as="geometry" />
        </mxCell>
        <mxCell id="H7jm2XfHQFkNsiDKC1nO-17" style="edgeStyle=orthogonalEdgeStyle;rounded=0;orthogonalLoop=1;jettySize=auto;html=1;" edge="1" parent="1" source="H7jm2XfHQFkNsiDKC1nO-6" target="H7jm2XfHQFkNsiDKC1nO-2">
          <mxGeometry relative="1" as="geometry">
            <mxPoint x="110" y="330" as="targetPoint" />
            <Array as="points">
              <mxPoint x="80" y="330" />
            </Array>
          </mxGeometry>
        </mxCell>
        <mxCell id="H7jm2XfHQFkNsiDKC1nO-18" value="New Version publication request&amp;nbsp;" style="edgeLabel;html=1;align=center;verticalAlign=middle;resizable=0;points=[];" vertex="1" connectable="0" parent="H7jm2XfHQFkNsiDKC1nO-17">
          <mxGeometry x="0.1422" y="-3" relative="1" as="geometry">
            <mxPoint x="-5" y="-13" as="offset" />
          </mxGeometry>
        </mxCell>
        <mxCell id="H7jm2XfHQFkNsiDKC1nO-19" style="edgeStyle=orthogonalEdgeStyle;rounded=0;orthogonalLoop=1;jettySize=auto;html=1;entryX=0.05;entryY=0.243;entryDx=0;entryDy=0;entryPerimeter=0;" edge="1" parent="1" source="H7jm2XfHQFkNsiDKC1nO-6" target="H7jm2XfHQFkNsiDKC1nO-2">
          <mxGeometry relative="1" as="geometry">
            <mxPoint x="120" y="220" as="targetPoint" />
            <Array as="points">
              <mxPoint x="80" y="220" />
              <mxPoint x="347" y="220" />
            </Array>
          </mxGeometry>
        </mxCell>
        <mxCell id="H7jm2XfHQFkNsiDKC1nO-20" value="Login details" style="edgeLabel;html=1;align=center;verticalAlign=middle;resizable=0;points=[];" vertex="1" connectable="0" parent="H7jm2XfHQFkNsiDKC1nO-19">
          <mxGeometry x="-0.0499" y="4" relative="1" as="geometry">
            <mxPoint y="-6" as="offset" />
          </mxGeometry>
        </mxCell>
        <mxCell id="H7jm2XfHQFkNsiDKC1nO-6" value="Author" style="rounded=0;whiteSpace=wrap;html=1;" vertex="1" parent="1">
          <mxGeometry x="20" y="240" width="120" height="60" as="geometry" />
        </mxCell>
        <mxCell id="H7jm2XfHQFkNsiDKC1nO-8" value="Sign in details" style="text;html=1;align=center;verticalAlign=middle;resizable=0;points=[];autosize=1;strokeColor=none;fillColor=none;" vertex="1" parent="1">
          <mxGeometry x="170" y="248" width="100" height="30" as="geometry" />
        </mxCell>
        <mxCell id="H7jm2XfHQFkNsiDKC1nO-14" style="edgeStyle=orthogonalEdgeStyle;rounded=0;orthogonalLoop=1;jettySize=auto;html=1;" edge="1" parent="1" source="H7jm2XfHQFkNsiDKC1nO-11" target="H7jm2XfHQFkNsiDKC1nO-2">
          <mxGeometry relative="1" as="geometry">
            <mxPoint x="490" y="270" as="targetPoint" />
            <Array as="points">
              <mxPoint x="491" y="30" />
              <mxPoint x="491" y="260" />
            </Array>
          </mxGeometry>
        </mxCell>
        <mxCell id="H7jm2XfHQFkNsiDKC1nO-15" value="Publication&amp;nbsp; details" style="edgeLabel;html=1;align=center;verticalAlign=middle;resizable=0;points=[];" vertex="1" connectable="0" parent="H7jm2XfHQFkNsiDKC1nO-14">
          <mxGeometry x="0.1644" y="7" relative="1" as="geometry">
            <mxPoint as="offset" />
          </mxGeometry>
        </mxCell>
        <mxCell id="H7jm2XfHQFkNsiDKC1nO-11" value="Editor" style="rounded=0;whiteSpace=wrap;html=1;" vertex="1" parent="1">
          <mxGeometry x="340" width="120" height="60" as="geometry" />
        </mxCell>
        <mxCell id="H7jm2XfHQFkNsiDKC1nO-12" style="edgeStyle=orthogonalEdgeStyle;rounded=0;orthogonalLoop=1;jettySize=auto;html=1;entryX=0.429;entryY=0;entryDx=0;entryDy=0;entryPerimeter=0;" edge="1" parent="1" source="H7jm2XfHQFkNsiDKC1nO-11" target="H7jm2XfHQFkNsiDKC1nO-2">
          <mxGeometry relative="1" as="geometry" />
        </mxCell>
        <mxCell id="H7jm2XfHQFkNsiDKC1nO-13" value="Revier\wer Selection" style="edgeLabel;html=1;align=center;verticalAlign=middle;resizable=0;points=[];" vertex="1" connectable="0" parent="H7jm2XfHQFkNsiDKC1nO-12">
          <mxGeometry x="-0.2006" y="5" relative="1" as="geometry">
            <mxPoint as="offset" />
          </mxGeometry>
        </mxCell>
        <mxCell id="H7jm2XfHQFkNsiDKC1nO-24" style="edgeStyle=orthogonalEdgeStyle;rounded=0;orthogonalLoop=1;jettySize=auto;html=1;exitX=0;exitY=0.5;exitDx=0;exitDy=0;" edge="1" parent="1" source="H7jm2XfHQFkNsiDKC1nO-21" target="H7jm2XfHQFkNsiDKC1nO-2">
          <mxGeometry relative="1" as="geometry" />
        </mxCell>
        <mxCell id="H7jm2XfHQFkNsiDKC1nO-25" value="Payment" style="edgeLabel;html=1;align=center;verticalAlign=middle;resizable=0;points=[];" vertex="1" connectable="0" parent="H7jm2XfHQFkNsiDKC1nO-24">
          <mxGeometry x="-0.1167" relative="1" as="geometry">
            <mxPoint y="-10" as="offset" />
          </mxGeometry>
        </mxCell>
        <mxCell id="H7jm2XfHQFkNsiDKC1nO-26" style="edgeStyle=orthogonalEdgeStyle;rounded=0;orthogonalLoop=1;jettySize=auto;html=1;" edge="1" parent="1" source="H7jm2XfHQFkNsiDKC1nO-21" target="H7jm2XfHQFkNsiDKC1nO-2">
          <mxGeometry relative="1" as="geometry">
            <mxPoint x="490" y="320" as="targetPoint" />
            <Array as="points">
              <mxPoint x="780" y="320" />
            </Array>
          </mxGeometry>
        </mxCell>
        <mxCell id="H7jm2XfHQFkNsiDKC1nO-27" value="Feedback on the manuscript" style="edgeLabel;html=1;align=center;verticalAlign=middle;resizable=0;points=[];" vertex="1" connectable="0" parent="H7jm2XfHQFkNsiDKC1nO-26">
          <mxGeometry x="0.1143" relative="1" as="geometry">
            <mxPoint x="10" y="-10" as="offset" />
          </mxGeometry>
        </mxCell>
        <mxCell id="H7jm2XfHQFkNsiDKC1nO-28" style="edgeStyle=orthogonalEdgeStyle;rounded=0;orthogonalLoop=1;jettySize=auto;html=1;entryX=0.657;entryY=0.986;entryDx=0;entryDy=0;entryPerimeter=0;" edge="1" parent="1" source="H7jm2XfHQFkNsiDKC1nO-21" target="H7jm2XfHQFkNsiDKC1nO-2">
          <mxGeometry relative="1" as="geometry">
            <mxPoint x="430" y="360" as="targetPoint" />
            <Array as="points">
              <mxPoint x="800" y="360" />
              <mxPoint x="432" y="360" />
            </Array>
          </mxGeometry>
        </mxCell>
        <mxCell id="H7jm2XfHQFkNsiDKC1nO-29" value="Ask Quarry Details" style="edgeLabel;html=1;align=center;verticalAlign=middle;resizable=0;points=[];" vertex="1" connectable="0" parent="H7jm2XfHQFkNsiDKC1nO-28">
          <mxGeometry x="0.0757" y="-6" relative="1" as="geometry">
            <mxPoint x="2" y="-4" as="offset" />
          </mxGeometry>
        </mxCell>
        <mxCell id="H7jm2XfHQFkNsiDKC1nO-21" value="Reader" style="rounded=0;whiteSpace=wrap;html=1;" vertex="1" parent="1">
          <mxGeometry x="720" y="240" width="120" height="60" as="geometry" />
        </mxCell>
      </root>
    </mxGraphModel>
  </diagram>
</mxfile>
